<?xml version="1.0" standalone="no"?>
<!DOCTYPE svg PUBLIC "-//W3C//DTD SVG 20010904//EN"
 "http://www.w3.org/TR/2001/REC-SVG-20010904/DTD/svg10.dtd">
<svg version="1.0" xmlns="http://www.w3.org/2000/svg"
 width="200.000000pt" height="200.000000pt" viewBox="0 0 200.000000 200.000000"
 preserveAspectRatio="xMidYMid meet">
<metadata>
Created by potrace 1.11, written by Peter Selinger 2001-2013
</metadata>
<g transform="translate(0.000000,200.000000) scale(0.100000,-0.100000)"
fill="#000000" stroke="none">
<path d="M807 1764 c-1 -1 -73 -5 -159 -8 -86 -4 -178 -9 -205 -11 -26 -3 -80
-7 -119 -9 -106 -7 -170 -39 -223 -112 -53 -72 -61 -111 -88 -439 -11 -137 -5
-387 12 -508 2 -18 7 -56 9 -86 12 -125 37 -190 92 -245 75 -75 122 -84 529
-103 363 -16 969 2 1104 33 43 11 104 54 137 98 43 56 59 108 70 221 3 33 7
71 9 84 23 137 23 454 0 641 -2 19 -6 59 -9 89 -13 126 -37 190 -92 245 -67
67 -109 79 -319 91 -55 3 -140 8 -190 11 -87 5 -553 12 -558 8z m210 -561
c153 -91 281 -171 285 -177 20 -29 7 -53 -49 -86 -32 -18 -65 -39 -73 -46 -8
-6 -35 -23 -60 -36 -25 -14 -120 -71 -212 -126 -91 -56 -173 -102 -181 -102
-9 0 -23 7 -31 16 -14 13 -16 60 -16 354 0 294 2 341 16 354 8 9 22 16 29 16
7 0 139 -75 292 -167z"/>
</g>
</svg>
